<svg width="128" height="36" viewBox="0 0 128 36" fill="none" xmlns="http://www.w3.org/2000/svg">
<g clip-path="url(#clip0_1_850)">
<path d="M89.564 14.0863C90.4424 14.0863 91.1544 13.3743 91.1544 12.4959C91.1544 11.6176 90.4424 10.9055 89.564 10.9055C88.6857 10.9055 87.9736 11.6176 87.9736 12.4959C87.9736 13.3743 88.6857 14.0863 89.564 14.0863Z" fill="white"/>
<path d="M125.67 17.7945C123.216 17.7409 118.417 21.5953 117.85 22.1881L120.358 17.9025H116.583C111.73 26.1233 101.592 34.1289 97.0896 34.2905C93.0176 34.5865 92.7216 31.6761 94.0696 28.2265V28.2529C99.84 28.8457 109.978 22.9161 106.796 18.5225C104.073 15.8001 96.7392 18.6577 92.0744 24.8833L91.7512 25.3689L91.0504 26.3929C89.4056 28.6033 86.008 31.7833 86.008 31.7833C81.64 36.0689 79.672 33.5625 81.5056 30.4633L88.704 17.9833H85.4688C84.5792 19.1961 80.2112 27.2017 73.12 32.2153C69.1024 35.2873 65.9752 33.9673 68.7792 29.9777L75.816 17.9833L79.7256 17.9569L80.2376 17.4177H76.2208L80.4808 9.97768H76.9216C75.0336 13.1857 70.6128 20.6521 66.1904 22.5385C66.9728 21.4873 66.7024 20.0857 66.7024 20.0857C66.3792 18.4689 64.5728 18.3073 64.5728 18.3073C64.5728 18.3073 62.0112 17.9297 59.0992 20.5169L60.6632 17.9297H57.0776C53.9496 23.4817 45.6456 35.2873 41.1152 34.1553C39.9024 33.6161 39.8216 32.0801 41.0888 30.0049L48.2608 17.8761H44.7008C44.216 18.6041 42.76 21.3801 42.7872 21.3257C42.9216 20.5977 43.1104 17.7945 40.3608 17.2289C39.74 17.0937 39.3088 17.0673 38.716 17.0673C35.6688 17.0401 32.596 18.6305 29.5752 21.2993C27.4456 23.1857 25.4232 25.6921 23.7248 28.8193C16.4176 35.5305 8.92245 35.9073 6.46885 33.4009C3.88005 30.7321 2.85605 25.2609 7.65525 16.0425C9.35365 13.6441 15.6632 3.24007 24.7496 0.840874C31.544 -0.964727 34.2936 2.86247 34.5368 7.30968C34.5368 7.30968 36.5856 3.45607 38.9048 1.05687C37.4752 1.64967 34.348 2.37687 32.892 1.48807C28.4968 -1.31513 20.0304 -0.883926 9.19205 9.19688C-0.110352 18.6305 -6.71595 36.9585 11.7264 35.5305C18.2512 34.7217 23.7248 29.5193 23.7248 29.5193C22.8616 32.6729 24.264 35.0449 26.96 35.5305C27.9576 35.7185 29.36 35.4489 30.5464 34.9913C31.544 34.5865 33.6472 33.7241 36.3968 31.5673C35.5344 35.0177 40.8728 40.1657 50.7144 28.0105L46.1576 35.3145L50.3096 35.2873C50.3096 35.2873 57.2392 23.0505 58.5064 21.8105C61.2024 18.2265 66.164 17.5521 66.0824 20.0585C65.5432 19.7897 65.0584 19.7089 64.6536 19.7897C63.4672 19.9777 62.928 21.4609 63.1712 22.4849C63.3056 22.8353 63.4944 23.1857 64.0608 23.4553C64.0608 23.4553 66.3792 25.0721 71.9608 18.0913L71.152 19.5201C71.152 19.5201 65.5168 29.2233 64.7888 30.5977C61.9304 36.0697 68.6984 36.5817 72.7424 33.1041C72.7424 33.1041 76.032 30.6785 79.78 26.5817C79.7293 26.6686 79.6841 26.7586 79.6448 26.8513C77.7032 30.3281 75.5728 33.8857 78.324 35.4225C79.1056 35.7729 81.236 36.0153 83.8784 34.1553C83.8784 34.1553 88.1104 30.6785 90.3488 27.8481C89.4048 30.0321 88.5424 33.6161 92.3712 35.2337C94.528 35.9073 96.2808 35.4761 98.4376 34.7481C105.206 32.5385 113.86 22.6201 113.86 22.6201C113.86 22.6201 106.526 34.8025 106.284 35.2601L110.004 35.2337C110.004 35.2337 115.29 26.2849 116.368 24.7761C119.253 20.2481 125.508 17.1481 126.155 18.7113C123.837 18.2529 123.27 21.6761 125.104 22.3769C127.962 23.4817 129.606 18.0105 125.67 17.7945ZM103.206 18.0505C104.204 18.1585 104.689 18.6705 104.582 20.0721C104.258 23.0921 99.836 28.0257 94.1736 27.8641C96.1424 23.2265 100.834 17.8345 103.206 18.0505ZM35.184 31.8001C34.1056 32.7169 32.784 33.4449 32.784 33.4449C27.3656 36.1681 26.152 33.2025 26.7448 30.4529C27.2568 28.0801 29.3608 24.6017 31.0856 22.4721C32.6496 20.7201 34.2936 19.3713 36.3976 18.3473C40.9 16.1361 43.6496 18.9129 41.7896 22.8497C40.5496 25.4377 38.5544 28.9153 35.184 31.8001Z" fill="white"/>
</g>
<defs>
<clipPath id="clip0_1_850">
<rect width="128" height="36" fill="white"/>
</clipPath>
</defs>
</svg>
